<svg id="Capa_1" enable-background="new 0 0 512 512" height="512" viewBox="0 0 512 512" width="512" xmlns="http://www.w3.org/2000/svg"><g><path d="m459.5 234.5h-30v150l30-60c24.853 0 45-20.147 45-45s-20.147-45-45-45z" fill="#70ae3e"/><path d="m80.34 234.5h-27.84c-24.853 0-45 20.147-45 45s20.147 45 45 45l203.5 60v-105z" fill="#9dcb3b"/><path d="m80.34 234.5c27.41 70.237 95.721 120 175.66 120v-120z" fill="#70ae3e"/><path d="m256 97.5v-60l-60 30c-32.814 12.158-56.2 43.744-56.2 80.8v116.111l112.674-30c-36.193-1.835-64.974-31.762-64.974-68.411 0-37.832 30.668-68.5 68.5-68.5z" fill="#fff066"/><path d="m316 7.5h-30l29.947 90h30.053c16.569 0 30-13.431 30-30 0-33.137-26.863-60-60-60z" fill="#70ae3e"/><path d="m429.5 234.5h-173.5c-1.183 0-2.358-.03-3.526-.089-45.97-1.852-82.674-39.686-82.674-86.111 0-37.056 23.385-68.642 56.2-80.827 0 16.595 13.431 30.027 30 30.027h59.947c16.567 0 30.087-13.557 30.053-30.125-.067-33.08-26.905-59.875-60-59.875h-30c-87.537 0-158.5 70.962-158.5 158.5s70.963 158.5 158.5 158.5l86.75 60 86.75-60c24.853 0 45-20.147 45-45s-20.147-45-45-45z" fill="#9dcb3b"/><path d="m429.5 459.5v45h30c24.853 0 45-20.147 45-45z" fill="#fff066"/><path d="m504.5 459.5c0-24.853-20.147-45-45-45l-60-60 30 120h60c8.284 0 15-6.716 15-15z" fill="#70ae3e"/><path d="m7.5 459.5c0 24.853 20.147 45 45 45h377c19.592 0 36.251-12.524 42.429-30v-15z" fill="#fffacc"/><path d="m429.5 414.5-188.5-60-188.5 60c-24.853 0-45 20.147-45 45 0 8.284 6.716 15 15 15h449.429c1.659-4.693 2.571-9.739 2.571-15 0-24.853-20.147-45-45-45z" fill="#9dcb3b"/><path d="m429.5 369.5v45h30c24.853 0 45-20.147 45-45z" fill="#fff066"/><path d="m504.5 369.5c0-24.853-20.147-45-45-45h-30v60h60c8.284 0 15-6.716 15-15z" fill="#9dcb3b"/><path d="m7.5 369.5c0 24.853 20.147 45 45 45h377c19.592 0 36.251-12.524 42.429-30v-15z" fill="#fffacc"/><path d="m429.5 324.5h-377c-24.853 0-45 20.147-45 45 0 8.284 6.716 15 15 15h449.429c1.659-4.693 2.571-9.739 2.571-15 0-24.853-20.147-45-45-45z" fill="#cede51"/><circle cx="271" cy="52.5" fill="#fff066" r="15"/><circle cx="444.5" cy="294.5" r="7.5"/><circle cx="414.5" cy="264.5" r="7.5"/><circle cx="414.5" cy="444.5" r="7.5"/><circle cx="52.5" cy="354.5" r="7.5"/><path d="m512 369.5c0-19.077-10.231-35.806-25.491-45 15.26-9.194 25.491-25.923 25.491-45 0-28.948-23.552-52.5-52.5-52.5h-203.5c-33.636 0-61-27.364-61-61s27.364-61 61-61h90c18.11 0 33.261-12.904 36.745-30h35.147l12.804 12.804c1.465 1.464 3.385 2.196 5.304 2.196s3.839-.732 5.304-2.196c2.929-2.93 2.929-7.678 0-10.607l-9.696-9.696 9.696-9.696c2.929-2.93 2.929-7.678 0-10.607-2.93-2.928-7.678-2.928-10.607 0l-12.803 12.802h-34.82c-3.745-33.702-32.39-60-67.074-60h-60c-91.533 0-166 74.468-166 166 0 21.526 4.121 42.108 11.612 61h-49.112c-28.949 0-52.5 23.552-52.5 52.5 0 19.077 10.231 35.806 25.491 45-15.26 9.194-25.491 25.923-25.491 45s10.231 35.806 25.491 45c-15.26 9.194-25.491 25.923-25.491 45 0 28.948 23.551 52.5 52.5 52.5h407c28.948 0 52.5-23.552 52.5-52.5 0-19.077-10.231-35.806-25.491-45 15.26-9.194 25.491-25.923 25.491-45zm-332-203.5c0 .998.037 1.988.076 2.977-1.798-6.594-2.776-13.522-2.776-20.677 0-29.596 16.86-56.669 42.783-70.008 1.887 6.268 5.373 11.85 9.982 16.27-29.174 10.624-50.065 38.636-50.065 71.438zm76-151h60c28.948 0 52.5 23.552 52.5 52.5 0 12.406-10.094 22.5-22.5 22.5h-90c-12.407 0-22.5-10.094-22.5-22.5 0-2.456-1.202-4.756-3.218-6.157-2.016-1.402-4.589-1.728-6.893-.874-36.539 13.568-61.089 48.864-61.089 87.831 0 51.666 42.034 93.7 93.7 93.7h203.5c20.678 0 37.5 16.822 37.5 37.5s-16.822 37.5-37.5 37.5h-203.5c-83.262 0-151-67.738-151-151s67.738-151 151-151zm-241 264.5c0-20.678 16.822-37.5 37.5-37.5h55.948c17.041 32.951 44.798 59.496 78.63 75h-134.578c-20.678 0-37.5-16.822-37.5-37.5zm444.5 217.5h-407c-12.242 0-23.131-5.898-29.98-15h466.96c-6.849 9.102-17.738 15-29.98 15zm37.5-37.5c0 4.136-3.364 7.5-7.5 7.5h-467c-4.136 0-7.5-3.364-7.5-7.5 0-20.678 16.822-37.5 37.5-37.5h407c20.678 0 37.5 16.822 37.5 37.5zm-444.5-52.5c-12.242 0-23.131-5.898-29.98-15h29.98c4.142 0 7.5-3.357 7.5-7.5s-3.358-7.5-7.5-7.5h-30c-4.136 0-7.5-3.364-7.5-7.5 0-20.678 16.822-37.5 37.5-37.5h407c20.678 0 37.5 16.822 37.5 37.5 0 4.136-3.364 7.5-7.5 7.5h-407c-4.142 0-7.5 3.357-7.5 7.5s3.358 7.5 7.5 7.5h406.98c-6.849 9.102-17.737 15-29.98 15z"/><path d="m271 75c12.406 0 22.5-10.094 22.5-22.5s-10.094-22.5-22.5-22.5-22.5 10.094-22.5 22.5 10.094 22.5 22.5 22.5zm0-30c4.136 0 7.5 3.364 7.5 7.5s-3.364 7.5-7.5 7.5-7.5-3.364-7.5-7.5 3.364-7.5 7.5-7.5z"/><path d="m338.5 67.5c0 4.143 3.357 7.5 7.5 7.5s7.5-3.357 7.5-7.5c0-6.583-1.74-13.068-5.032-18.757-2.076-3.586-6.664-4.808-10.248-2.734-3.585 2.075-4.81 6.663-2.734 10.248 1.972 3.407 3.014 7.296 3.014 11.243z"/></g></svg>